HIERARCHY
ROOT Hips
{
	OFFSET -14.6414 90.2777 -84.9160
	CHANNELS 6 Xposition Yposition Zposition Zrotation Xrotation Yrotation
	JOINT Spine
	{
		OFFSET 0.0000 13.2085 -1.6044
		CHANNELS 3 Zrotation Xrotation Yrotation
		JOINT Spine1
		{
			OFFSET 0.0000 8.6172 0.0000
			CHANNELS 3 Zrotation Xrotation Yrotation
			JOINT Spine2
			{
				OFFSET 0.0000 8.6172 0.0000
				CHANNELS 3 Zrotation Xrotation Yrotation
				JOINT Spine3
				{
					OFFSET 0.0000 8.6172 0.0000
					CHANNELS 3 Zrotation Xrotation Yrotation
					JOINT Neck
					{
						OFFSET 0.0000 11.0792 1.1079
						CHANNELS 3 Zrotation Xrotation Yrotation
						JOINT Neck1
						{
							OFFSET 0.0000 7.0803 0.0000
							CHANNELS 3 Zrotation Xrotation Yrotation
							JOINT Head
							{
								OFFSET 0.0000 7.0803 0.0000
								CHANNELS 3 Zrotation Xrotation Yrotation
								End site
								{
									OFFSET 0.0000 0.0000 0.0000
								}
							}
						}
					}
					JOINT RightShoulder
					{
						OFFSET -0.0100 7.9137 5.1971
						CHANNELS 3 Zrotation Xrotation Yrotation
						JOINT RightArm
						{
							OFFSET -18.4158 0.0000 0.0000
							CHANNELS 3 Zrotation Xrotation Yrotation
							JOINT RightForeArm
							{
								OFFSET -29.1109 0.0000 0.0000
								CHANNELS 3 Zrotation Xrotation Yrotation
								JOINT RightHand
								{
									OFFSET -24.6504 0.0000 0.0000
									CHANNELS 3 Zrotation Xrotation Yrotation
									JOINT RightHandThumb1
									{
										OFFSET -5.3511 -0.8559 3.9791
										CHANNELS 3 Zrotation Xrotation Yrotation
										JOINT RightHandThumb2
										{
											OFFSET -4.5279 0.0000 0.0000
											CHANNELS 3 Zrotation Xrotation Yrotation
											JOINT RightHandThumb3
											{
												OFFSET -2.4698 0.0000 0.0000
												CHANNELS 3 Zrotation Xrotation Yrotation
												End site
												{
													OFFSET 0.0000 0.0000 0.0000
												}
											}
										}
									}
									JOINT RightHandIndex1
									{
										OFFSET -14.2697 0.0000 2.8814
										CHANNELS 3 Zrotation Xrotation Yrotation
										JOINT RightHandIndex2
										{
											OFFSET -5.4884 0.0000 0.0000
											CHANNELS 3 Zrotation Xrotation Yrotation
											JOINT RightHandIndex3
											{
												OFFSET -3.0186 0.0000 0.0000
												CHANNELS 3 Zrotation Xrotation Yrotation
												End site
												{
													OFFSET 0.0000 0.0000 0.0000
												}
											}
										}
									}
									JOINT RightHandMiddle1
									{
										OFFSET -14.2697 0.0000 -0.0915
										CHANNELS 3 Zrotation Xrotation Yrotation
										JOINT RightHandMiddle2
										{
											OFFSET -6.1744 0.0000 0.0000
											CHANNELS 3 Zrotation Xrotation Yrotation
											JOINT RightHandMiddle3
											{
												OFFSET -3.5674 0.0000 0.0000
												CHANNELS 3 Zrotation Xrotation Yrotation
												End site
												{
													OFFSET 0.0000 0.0000 0.0000
												}
											}
										}
									}
									JOINT RightHandRing1
									{
										OFFSET -12.6918 0.0000 -3.0643
										CHANNELS 3 Zrotation Xrotation Yrotation
										JOINT RightHandRing2
										{
											OFFSET -5.6256 0.0000 0.0000
											CHANNELS 3 Zrotation Xrotation Yrotation
											JOINT RightHandRing3
											{
												OFFSET -3.5674 0.0000 0.0000
												CHANNELS 3 Zrotation Xrotation Yrotation
												End site
												{
													OFFSET 0.0000 0.0000 0.0000
												}
											}
										}
									}
									JOINT RightHandPinky1
									{
										OFFSET -11.1139 0.0000 -6.0372
										CHANNELS 3 Zrotation Xrotation Yrotation
										JOINT RightHandPinky2
										{
											OFFSET -4.5279 0.0000 0.0000
											CHANNELS 3 Zrotation Xrotation Yrotation
											JOINT RightHandPinky3
											{
												OFFSET -2.4698 0.0000 0.0000
												CHANNELS 3 Zrotation Xrotation Yrotation
												End site
												{
													OFFSET 0.0000 0.0000 0.0000
												}
											}
										}
									}
								}
							}
						}
					}
					JOINT LeftShoulder
					{
						OFFSET 0.0100 7.9137 5.1971
						CHANNELS 3 Zrotation Xrotation Yrotation
						JOINT LeftArm
						{
							OFFSET 18.4158 0.0000 0.0000
							CHANNELS 3 Zrotation Xrotation Yrotation
							JOINT LeftForeArm
							{
								OFFSET 29.1109 0.0000 0.0000
								CHANNELS 3 Zrotation Xrotation Yrotation
								JOINT LeftHand
								{
									OFFSET 24.6504 0.0000 0.0000
									CHANNELS 3 Zrotation Xrotation Yrotation
									JOINT LeftHandThumb1
									{
										OFFSET 5.3511 -0.8559 3.9791
										CHANNELS 3 Zrotation Xrotation Yrotation
										JOINT LeftHandThumb2
										{
											OFFSET 4.5279 0.0000 0.0000
											CHANNELS 3 Zrotation Xrotation Yrotation
											JOINT LeftHandThumb3
											{
												OFFSET 2.4698 0.0000 0.0000
												CHANNELS 3 Zrotation Xrotation Yrotation
												End site
												{
													OFFSET 0.0000 0.0000 0.0000
												}
											}
										}
									}
									JOINT LeftHandIndex1
									{
										OFFSET 14.2697 0.0000 2.8814
										CHANNELS 3 Zrotation Xrotation Yrotation
										JOINT LeftHandIndex2
										{
											OFFSET 5.4884 0.0000 0.0000
											CHANNELS 3 Zrotation Xrotation Yrotation
											JOINT LeftHandIndex3
											{
												OFFSET 3.0186 0.0000 0.0000
												CHANNELS 3 Zrotation Xrotation Yrotation
												End site
												{
													OFFSET 0.0000 0.0000 0.0000
												}
											}
										}
									}
									JOINT LeftHandMiddle1
									{
										OFFSET 14.2697 0.0000 -0.0915
										CHANNELS 3 Zrotation Xrotation Yrotation
										JOINT LeftHandMiddle2
										{
											OFFSET 6.1744 0.0000 0.0000
											CHANNELS 3 Zrotation Xrotation Yrotation
											JOINT LeftHandMiddle3
											{
												OFFSET 3.5674 0.0000 0.0000
												CHANNELS 3 Zrotation Xrotation Yrotation
												End site
												{
													OFFSET 0.0000 0.0000 0.0000
												}
											}
										}
									}
									JOINT LeftHandRing1
									{
										OFFSET 12.6918 0.0000 -3.0643
										CHANNELS 3 Zrotation Xrotation Yrotation
										JOINT LeftHandRing2
										{
											OFFSET 5.6256 0.0000 0.0000
											CHANNELS 3 Zrotation Xrotation Yrotation
											JOINT LeftHandRing3
											{
												OFFSET 3.5674 0.0000 0.0000
												CHANNELS 3 Zrotation Xrotation Yrotation
												End site
												{
													OFFSET 0.0000 0.0000 0.0000
												}
											}
										}
									}
									JOINT LeftHandPinky1
									{
										OFFSET 11.1139 0.0000 -6.0372
										CHANNELS 3 Zrotation Xrotation Yrotation
										JOINT LeftHandPinky2
										{
											OFFSET 4.5279 0.0000 0.0000
											CHANNELS 3 Zrotation Xrotation Yrotation
											JOINT LeftHandPinky3
											{
												OFFSET 2.4698 0.0000 0.0000
												CHANNELS 3 Zrotation Xrotation Yrotation
												End site
												{
													OFFSET 0.0000 0.0000 0.0000
												}
											}
										}
									}
								}
							}
						}
					}
					JOINT pCube4
					{
						OFFSET 0.0000 10.9109 1.1079
						CHANNELS 3 Zrotation Xrotation Yrotation
						End site
						{
							OFFSET 0.0000 0.0000 0.0000
						}
					}
				}
			}
		}
	}
	JOINT RightUpLeg
	{
		OFFSET -9.9844 0.0000 0.0000
		CHANNELS 3 Zrotation Xrotation Yrotation
		JOINT RightLeg
		{
			OFFSET 0.0000 -42.1179 0.0000
			CHANNELS 3 Zrotation Xrotation Yrotation
			JOINT RightFoot
			{
				OFFSET 0.0000 -45.0002 -0.0000
				CHANNELS 3 Zrotation Xrotation Yrotation
				JOINT RightForeFoot
				{
					OFFSET 0.0000 -3.7482 0.0000
					CHANNELS 3 Zrotation Xrotation Yrotation
					JOINT RightToeBase
					{
						OFFSET 0.0000 0.0632 14.4312
						CHANNELS 3 Zrotation Xrotation Yrotation
						End site
						{
							OFFSET 0.0000 0.0000 0.0000
						}
					}
				}
			}
		}
	}
	JOINT LeftUpLeg
	{
		OFFSET 9.9844 0.0000 0.0000
		CHANNELS 3 Zrotation Xrotation Yrotation
		JOINT LeftLeg
		{
			OFFSET 0.0000 -42.1180 0.0000
			CHANNELS 3 Zrotation Xrotation Yrotation
			JOINT LeftFoot
			{
				OFFSET 0.0000 -45.0007 0.0000
				CHANNELS 3 Zrotation Xrotation Yrotation
				JOINT LeftForeFoot
				{
					OFFSET 0.0000 -3.7482 0.0000
					CHANNELS 3 Zrotation Xrotation Yrotation
					JOINT LeftToeBase
					{
						OFFSET 0.0000 0.0633 14.4311
						CHANNELS 3 Zrotation Xrotation Yrotation
						End site
						{
							OFFSET 0.0000 0.0000 0.0000
						}
					}
				}
			}
		}
	}
}
MOTION
Frames: 4
Frame Time: 0.016667
-15.3342 89.5235 -81.4052 6.7119 5.1632 -164.14 5.2171 1.622 -5.2129 -0.6276 3.0938 0.5414 -0.643 -0.5145 0.8941 -0.0996 -2.3137 0.0673 0.2837 7.8614 -4.0416 0.5377 -0.8342 -9.1336 2.0814 -16.4926 -0.817 -10.5999 2.8413 -14.8356 69.6312 28.0264 12.4233 12.0113 -0.0817 89.616 28.1908 -0.0 -8.2777 5.7151 3.1955 29.1175 0.0 0.0 -19.1839 0.0 -0.0 -19.1839 10.8418 0.0 -0.0 13.0101 0.0 -0.0 13.0101 -0.0 0.0 17.8364 -0.0 0.0 21.4037 0.0 0.0 21.4037 0.0 -0.0 19.9738 -0.0 -0.0 23.9685 0.0 -0.0 23.9685 0.0 -0.0 29.6678 -0.0 0.0 35.6014 -0.0 0.0 35.6014 -0.0 -0.0 8.8715 1.7825 11.2704 -65.2449 39.1136 -14.8893 -33.7014 -6.595 -80.2293 -41.1687 -0.0 1.9912 174.181 -7.1369 -129.362 -0.0 -0.0 -0.0 -0.0 0.0 -150.885 -6.5956 0.0 0.0 -7.9148 -0.0 -0.0 -7.9148 0.0 -0.0 -16.5938 0.0 0.0 -19.9125 0.0 -0.0 -19.9125 -0.0 0.0 -19.5921 0.0 -0.0 -23.5105 -0.0 0.0 -23.5105 -0.0 -0.0 -28.8552 0.0 0.0 -34.6262 0.0 0.0 -34.6262 0.0 -0.0 -0.0 0.0 0.0 -1.2972 -15.6882 -9.5326 0.003 39.6039 0.1723 6.0869 -8.9142 0.9165 0.0 -0.0 0.0 0.0 -5.9687 0.0 13.2729 -0.0087 17.9729 0.0 26.1121 0.1557 4.2248 -31.295 -23.5306 0.0 -0.0 0.0 0.0 10.9074 0.0
-15.2339 89.5182 -81.2989 6.5628 5.1321 -164.232 5.0723 1.5753 -5.1027 -0.6363 3.0808 0.5499 -0.6396 -0.5267 1.0647 -0.2117 -2.4606 0.096 0.2177 7.7732 -3.9068 0.5898 -0.7805 -8.9863 2.1937 -16.3003 -0.8093 -10.8024 2.8083 -14.405 69.2519 27.3197 12.9775 12.1363 -0.2077 89.0374 29.0405 0.0017 -8.5108 6.1696 3.4766 29.284 0.0 0.0 -18.9507 -0.0 -0.0 -18.9507 11.7665 -0.0 -0.0 14.1197 0.0 -0.0 14.1197 -0.0 0.0 18.9799 0.0 -0.0 22.7758 -0.0 -0.0 22.7758 -0.0 0.0 21.0872 0.0 -0.0 25.3046 0.0 -0.0 25.3046 0.0 -0.0 30.9998 0.0 -0.0 37.1998 0.0 -0.0 37.1998 -0.0 0.0 9.066 1.8063 11.1753 -65.3493 38.9855 -15.4049 -36.1761 -6.6916 -80.9276 -42.0327 0.0035 2.4509 174.611 -6.8746 -128.212 -0.0 -0.0 0.0 -0.0 0.0 -152.218 -7.204 -0.0 0.0 -8.6448 0.0 -0.0 -8.6448 0.0 0.0 -17.8185 -0.0 0.0 -21.3822 -0.0 -0.0 -21.3822 0.0 -0.0 -20.946 0.0 0.0 -25.1353 0.0 -0.0 -25.1353 -0.0 -0.0 -30.6733 -0.0 0.0 -36.808 0.0 -0.0 -36.808 0.0 -0.0 -0.0 0.0 -0.0 -1.2756 -15.2109 -9.453 -0.0 39.1853 0.1738 6.1195 -9.4561 2.2089 0.0 0.0 0.0 0.0 -6.1817 -0.0 13.1195 -0.0646 17.8314 0.0001 26.1118 0.1587 4.3126 -31.1872 -23.2623 -0.0 0.0 0.0 -0.0 10.9171 0.0
-15.1017 89.5148 -81.2095 6.4137 5.1014 -164.325 4.9276 1.5282 -4.9928 -0.645 3.0679 0.5586 -0.6363 -0.5388 1.2354 -0.3238 -2.6075 0.1244 0.1519 7.685 -3.7722 0.6417 -0.7267 -8.8389 2.3058 -16.1078 -0.8019 -11.0047 2.7739 -13.9745 68.8825 26.6098 13.523 12.2602 -0.3349 88.4593 29.8901 0.0 -8.7438 6.6234 3.7589 29.4483 0.0 -0.0 -18.7174 0.0 0.0 -18.7174 12.6911 -0.0 0.0 15.2294 0.0 0.0 15.2294 -0.0 -0.0 20.1233 0.0 0.0 24.148 0.0 0.0 24.148 -0.0 -0.0 22.2005 0.0 0.0 26.6406 -0.0 0.0 26.6406 -0.0 -0.0 32.3318 0.0 0.0 38.7982 -0.0 0.0 38.7982 0.0 -0.0 9.2606 1.8298 11.0801 -65.4546 38.8582 -15.9202 -38.6524 -6.7581 -81.6297 -42.8965 -0.0 2.9106 175.036 -6.6043 -127.064 -0.0 0.0 -0.0 -0.0 0.0 -153.551 -7.8124 -0.0 -0.0 -9.3749 0.0 0.0 -9.3749 0.0 -0.0 -19.0433 0.0 -0.0 -22.852 -0.0 0.0 -22.852 0.0 -0.0 -22.3 0.0 0.0 -26.76 0.0 -0.0 -26.76 -0.0 -0.0 -32.4914 -0.0 0.0 -38.9897 -0.0 -0.0 -38.9897 0.0 -0.0 0.0 0.0 -0.0 -1.2552 -14.7074 -9.3739 0.0018 38.742 0.1755 6.163 -9.9982 3.5034 0.0 0.0 -0.0 0.0 -6.3947 0.0 12.9659 -0.1195 17.6897 -0.0 26.1107 0.1616 4.3997 -31.0788 -22.9945 0.0 0.0 0.0 -0.0 10.9269 -0.0
-14.9436 89.5165 -81.138 6.2886 5.0469 -164.41 4.7953 1.4587 -4.8799 -0.6525 3.0512 0.5658 -0.6325 -0.5426 1.4056 -0.3958 -2.7184 0.1606 0.15 7.5533 -3.76 0.6882 -0.6952 -8.9158 2.4065 -15.9786 -0.8128 -11.2021 2.7603 -13.6698 68.7532 25.6011 13.9686 12.6176 -0.4474 88.0089 29.7563 0.0001 -8.6284 6.4062 3.7032 29.9163 -0.0 0.0 -18.1681 0.0 -0.0 -18.1681 12.0621 0.0 0.0 14.4746 -0.0 0.0 14.4746 -0.0 0.0 19.4755 -0.0 0.0 23.3706 -0.0 -0.0 23.3706 0.0 0.0 21.6511 0.0 0.0 25.9813 0.0 -0.0 25.9813 -0.0 0.0 31.8537 0.0 -0.0 38.2245 -0.0 0.0 38.2245 0.0 0.0 9.3865 1.8374 10.9774 -65.5944 38.5888 -16.3229 -40.3568 -6.6138 -82.2683 -43.1399 0.0006 3.1724 175.494 -6.2425 -125.891 0.0 0.0 -0.0 -0.0 0.0 -154.908 -7.7153 -0.0 0.0 -9.2584 -0.0 -0.0 -9.2584 0.0 -0.0 -19.1983 0.0 0.0 -23.0379 -0.0 -0.0 -23.0379 -0.0 0.0 -22.5714 0.0 0.0 -27.0857 0.0 -0.0 -27.0857 0.0 -0.0 -32.9982 -0.0 0.0 -39.5978 -0.0 -0.0 -39.5978 0.0 0.0 -0.0 0.0 -0.0 -1.1555 -14.2932 -9.2675 -0.0016 38.3379 0.1637 5.6368 -10.4299 3.5383 0.0 -0.0 -0.0 0.0 -6.4714 0.0 12.9124 -0.1823 17.7344 -0.0 26.0974 0.1611 4.3813 -30.9718 -22.9559 -0.0 0.0 0.0 0.0 10.9141 -0.0
